<?xml version="1.0" encoding="utf-8"?>
<!-- Generator: Adobe Illustrator 26.0.0, SVG Export Plug-In . SVG Version: 6.00 Build 0)  -->
<svg version="1.1" id="레이어_1" xmlns="http://www.w3.org/2000/svg" xmlns:xlink="http://www.w3.org/1999/xlink" x="0px"
	 y="0px" viewBox="0 0 300 300" style="enable-background:new 0 0 300 300;" xml:space="preserve">
<style type="text/css">
	.st0{fill:#FC887B;}
	.st1{fill:#31A7FF;}
</style>
<g>
	<path class="st0" d="M286.62,75.38c-0.68,0.84-2.81,2.1-4.39,2.97c-0.38-0.34-0.78-0.66-1.19-0.97c1.35-4.13,4.45-13.8,5.11-17.72
		c0.99-5.88-4.85-6.42-6.05-3.09c-1.29,3.55-4.76,13.98-4.76,13.98s0.57-11.05,0.96-14.72c0.69-6.48-5.92-7.74-7.24-2.11
		c-0.87,3.69-0.9,16.76-0.9,16.76s-0.94-11.48-1.53-15.28c-1.03-6.6-8.64-5.7-7.25,0.95c0.78,3.74,1.53,15.23,1.53,15.23
		s-2.62-8.08-3.77-10.66c-3.1-6.92-8.11-2.57-6.77,2.55c0.91,3.49,3.73,12.27,4.92,15.93c-1.34,1.43-2.45,3.1-3.31,5.04
		c-1.03,2.32-1.55,5.01-1.55,8.06v40.49H206.3V92.3c0-3.05-0.52-5.74-1.55-8.06c-1.03-2.32-2.43-4.27-4.19-5.86
		c-1.77-1.58-3.77-2.78-6.02-3.57c-2.25-0.79-6.62-1.19-9.05-1.19c-2.43,0-4.81,0.4-7.11,1.19c-2.31,0.8-4.32,1.99-6.02,3.57
		c-1.71,1.59-3.07,3.54-4.11,5.86c-1.04,2.32-1.55,5.01-1.55,8.06l1.2,126.88c0,2.38,0.28,4.53,0.82,6.46c0,0.12,0,0.2,0,0.2h0.06
		c0.14,0.47,0.28,0.95,0.45,1.39c0.89,2.32,2.1,4.27,3.62,5.86c1.52,1.58,3.25,2.78,5.19,3.57c1.94,0.79,5.99,1.19,8.09,1.19
		c2.1,0,6.17-0.4,8.17-1.19c2-0.8,3.73-1.99,5.19-3.57c1.47-1.59,2.65-3.54,3.54-5.86c0.89-2.32,1.34-5.01,1.34-8.06l-0.11-46.38
		h48.18l0.57,46.38c0,3.05,0.45,5.74,1.34,8.06c0.89,2.32,2.1,4.27,3.62,5.86c1.52,1.58,3.25,2.78,5.19,3.57
		c1.94,0.79,5.99,1.19,8.09,1.19c2.1,0,4.15-0.4,6.14-1.19c2-0.8,3.73-1.99,5.19-3.57c1.47-1.59,2.65-3.54,3.54-5.86
		c0.89-2.32,1.34-5.01,1.34-8.06L288,92.3c0-2.42-0.34-4.59-0.99-6.55c2.13-1.76,4.07-3.43,5.18-4.54
		C298.84,74.54,291.22,69.7,286.62,75.38z"/>
	<path class="st0" d="M146.1,110.06c-3.77-8.67-8.73-15.66-14.87-20.97c-6.14-5.31-13.07-9.09-20.8-11.35
		c-7.72-2.26-13.51-3.39-21.41-3.39H79.5v31.68h8.43c8.63,0,13.54,2.84,18.77,8.52c5.23,5.68,7.22,13.91,7.84,24.63
		c0.65,11.18,0.65,23.39,0,32.01c-0.73,9.69-2.62,18.95-7.84,24.63c-5.23,5.68-10.14,8.51-18.77,8.51H79.5v31.68h9.52
		c7.9,0,13.69-1.13,21.41-3.39c7.72-2.26,14.65-6.04,20.8-11.35c6.14-5.31,11.1-12.3,14.87-20.97c3.77-8.67,5.65-19.35,5.65-32.05
		v-26.15C151.75,129.41,149.87,118.73,146.1,110.06z"/>
	<ellipse class="st0" cx="23.87" cy="91.35" rx="16.67" ry="16.73"/>
	<ellipse class="st0" cx="23.87" cy="219.29" rx="16.67" ry="16.73"/>
</g>
<path class="st1" d="M423.83,95.51c-0.51-1.14-1.2-2.1-2.07-2.88c-0.87-0.78-1.86-1.36-2.97-1.75c-1.11-0.39-2.27-0.58-3.46-0.58
	c-1.2,0-2.37,0.2-3.51,0.58c-1.14,0.39-2.13,0.98-2.97,1.75c-0.84,0.78-1.52,1.74-2.03,2.88c-0.51,1.14-0.76,2.46-0.76,3.96v19.9
	h-21.77v-19.9c0-1.5-0.26-2.82-0.77-3.96c-0.51-1.14-1.2-2.1-2.07-2.88c-0.87-0.78-1.86-1.36-2.97-1.75
	c-1.11-0.39-3.27-0.58-4.46-0.58c-1.2,0-2.37,0.2-3.51,0.58c-1.14,0.39-2.13,0.98-2.97,1.75c-0.84,0.78-1.52,1.74-2.03,2.88
	c-0.51,1.14-0.76,2.46-0.76,3.96l0.59,62.35c0,1.17,0.14,2.23,0.41,3.18c0,0.06,0,0.1,0,0.1h0.03c0.07,0.23,0.14,0.46,0.22,0.68
	c0.44,1.14,1.04,2.1,1.79,2.88c0.75,0.78,1.61,1.36,2.56,1.75c0.96,0.39,2.96,0.58,3.99,0.58c1.04,0,3.05-0.2,4.03-0.58
	c0.98-0.39,1.84-0.98,2.56-1.75c0.73-0.78,1.31-1.74,1.75-2.88c0.44-1.14,0.66-2.46,0.66-3.96l-0.05-22.79h23.77l0.28,22.79
	c0,1.5,0.22,2.82,0.66,3.96c0.44,1.14,1.04,2.1,1.79,2.88c0.75,0.78,1.61,1.36,2.56,1.75c0.96,0.39,2.96,0.58,3.99,0.58
	c1.04,0,2.05-0.2,3.03-0.58c0.98-0.39,1.84-0.98,2.56-1.75c0.73-0.78,1.31-1.74,1.75-2.88c0.44-1.14,0.66-2.46,0.66-3.96l0.26-62.35
	C424.59,97.97,424.33,96.65,423.83,95.51z"/>
</svg>
